HIERARCHY
ROOT Hips
{
	OFFSET 62.890800 8.863803 43.568401
	CHANNELS 6 Xposition Yposition Zposition Zrotation Xrotation Yrotation
	JOINT Chest
	{
		OFFSET -0.160400 1.630001 7.806301
		CHANNELS 6 Xposition Yposition Zposition Zrotation Xrotation Yrotation
		JOINT Chest2
		{
			OFFSET 0.000000 0.000000 3.197998
			CHANNELS 6 Xposition Yposition Zposition Zrotation Xrotation Yrotation
			JOINT Neck
			{
				OFFSET 0.000000 0.000001 7.440701
				CHANNELS 6 Xposition Yposition Zposition Zrotation Xrotation Yrotation
				JOINT Head
				{
					OFFSET 0.000000 0.000000 2.173901
					CHANNELS 6 Xposition Yposition Zposition Zrotation Xrotation Yrotation
					End Site
					{
						OFFSET 0.000000 0.000001 10.420303
					}
				}
			}
			JOINT LeftCollar
			{
				OFFSET 2.426399 -1.880099 4.759399
				CHANNELS 6 Xposition Yposition Zposition Zrotation Xrotation Yrotation
				JOINT LeftShoulder
				{
					OFFSET 4.420197 0.000000 0.000000
					CHANNELS 6 Xposition Yposition Zposition Zrotation Xrotation Yrotation
					JOINT LeftElbow
					{
						OFFSET 0.000000 -0.000001 -10.347099
						CHANNELS 6 Xposition Yposition Zposition Zrotation Xrotation Yrotation
						JOINT LeftWrist
						{
							OFFSET 0.000000 -0.000001 -12.496300
							CHANNELS 6 Xposition Yposition Zposition Zrotation Xrotation Yrotation
							End Site
							{
								OFFSET 0.000000 0.000000 -2.173901
							}
						}
					}
				}
			}
			JOINT RightCollar
			{
				OFFSET -2.781502 -1.903799 5.072601
				CHANNELS 6 Xposition Yposition Zposition Zrotation Xrotation Yrotation
				JOINT RightShoulder
				{
					OFFSET -4.012100 0.000000 0.000000
					CHANNELS 6 Xposition Yposition Zposition Zrotation Xrotation Yrotation
					JOINT RightElbow
					{
						OFFSET 0.000000 -0.000001 -10.346600
						CHANNELS 6 Xposition Yposition Zposition Zrotation Xrotation Yrotation
						JOINT RightWrist
						{
							OFFSET 0.000000 -0.000001 -12.562599
							CHANNELS 6 Xposition Yposition Zposition Zrotation Xrotation Yrotation
							End Site
							{
								OFFSET 0.000000 0.000000 -2.173901
							}
						}
					}
				}
			}
		}
	}
	JOINT LeftHip
	{
		OFFSET 2.047997 -0.047200 -2.693199
		CHANNELS 6 Xposition Yposition Zposition Zrotation Xrotation Yrotation
		JOINT LeftKnee
		{
			OFFSET 0.000000 -0.000001 -18.824400
			CHANNELS 6 Xposition Yposition Zposition Zrotation Xrotation Yrotation
			JOINT LeftAnkle
			{
				OFFSET 0.000000 -0.000002 -19.078199
				CHANNELS 6 Xposition Yposition Zposition Zrotation Xrotation Yrotation
				End Site
				{
					OFFSET 0.000000 -9.342100 0.000001
				}
			}
		}
	}
	JOINT RightHip
	{
		OFFSET -2.129898 -0.022300 -2.538300
		CHANNELS 6 Xposition Yposition Zposition Zrotation Xrotation Yrotation
		JOINT RightKnee
		{
			OFFSET 0.000000 -0.000001 -18.644600
			CHANNELS 6 Xposition Yposition Zposition Zrotation Xrotation Yrotation
			JOINT RightAnkle
			{
				OFFSET 0.000000 -0.000002 -18.801399
				CHANNELS 6 Xposition Yposition Zposition Zrotation Xrotation Yrotation
				End Site
				{
					OFFSET 0.000000 -8.914600 0.000001
				}
			}
		}
	}
}
MOTION
Frames: 6
Frame Time: 0.041667
5.052792 -35.152309 26.232141 -366.654827 23.260037 -31.207770 -0.160406 1.630000 7.806307 -6.877089 10.204928 -18.415025 0.000014 0.000002 3.198004 2.829496 -8.606707 0.277769 -0.000000 0.000003 7.440700 -52.364820 -1.464277 4.332809 -0.000004 0.000001 2.173902 -3.604413 -1.243395 -7.112069 2.426402 -1.880101 4.759398 -3.847572 3.466660 -2.960620 4.420196 0.000001 -0.000003 -108.332039 -14.804788 -88.758342 -0.000005 -0.000001 -10.347093 339.633178 -33.946809 -3.454501 -0.000005 -0.000000 -12.496297 144.104793 12.138971 63.746770 -2.781507 -1.903803 5.072601 20.270815 16.049679 -4.772779 -4.012098 0.000003 0.000005 73.251252 -10.035905 60.536547 0.000002 0.000006 -10.346590 -18.291781 -28.604364 -27.697597 -0.000002 0.000000 -12.562598 873.939151 -157.946130 151.750261 2.047992 -0.047202 -2.693199 141.921960 -6.539396 63.180172 -0.000001 0.000005 -18.824400 3.357413 163.999317 -110.810237 -0.000002 -0.000003 -19.078207 34.251288 -2.633740 45.762862 -2.129901 -0.022298 -2.538301 -511.894702 -6.392626 -129.629423 -0.000003 -0.000003 -18.644596 376.378722 171.179540 87.718480 -0.000004 -0.000001 -18.801397 -30.360150 -6.260947 -55.664785
4.998497 -35.179707 26.277140 -366.762116 23.210929 -31.292460 -0.160402 1.630002 7.806305 -6.771546 10.283967 -18.679275 0.000005 0.000003 3.198000 2.752010 -8.778645 0.283294 -0.000003 0.000005 7.440701 -51.528914 -1.533611 3.771810 -0.000001 0.000001 2.173903 -4.139343 -0.856845 -7.166813 2.426403 -1.880104 4.759400 -2.942923 4.061075 -3.502205 4.420198 0.000007 0.000001 -109.425026 -15.369283 -89.904380 0.000004 0.000002 -10.347095 332.935631 -33.401059 -7.284770 -0.000006 0.000003 -12.496298 149.602002 12.363997 63.231241 -2.781507 -1.903804 5.072602 20.422494 16.209576 -4.825356 -4.012097 0.000003 0.000002 73.241949 -9.814075 60.580144 -0.000001 0.000006 -10.346600 -17.979409 -28.563899 -27.331313 0.000000 0.000004 -12.562602 873.735229 -157.978382 151.968075 2.047997 -0.047197 -2.693200 141.392866 -7.163034 62.761734 -0.000010 0.000005 -18.824398 4.656069 162.661542 -111.035783 0.000000 -0.000000 -19.078205 33.104380 -2.204202 44.325397 -2.129895 -0.022299 -2.538301 -511.822029 -6.413943 -129.553867 -0.000000 0.000003 -18.644594 376.428937 171.144460 87.752051 0.000005 0.000002 -18.801401 -30.318298 -6.331506 -55.691914
4.942989 -35.206806 26.325737 -366.856974 23.159667 -31.397642 -0.160405 1.630000 7.806302 -6.710653 10.366515 -18.935166 0.000005 -0.000003 3.197997 2.644866 -8.915300 0.269146 -0.000007 0.000007 7.440706 -50.892962 -1.702639 3.431939 -0.000006 0.000000 2.173904 -4.476532 -0.623284 -7.208632 2.426393 -1.880099 4.759395 -2.783689 4.883487 -4.155896 4.420199 0.000003 0.000001 -109.786275 -16.023636 -91.333788 -0.000001 0.000006 -10.347099 333.277769 -33.434869 -6.955560 0.000002 -0.000000 -12.496293 149.169952 12.436633 62.823445 -2.781503 -1.903800 5.072600 20.695955 17.123918 -4.829425 -4.012091 0.000005 0.000003 73.350255 -9.847019 61.351730 0.000000 0.000003 -10.346598 -17.556352 -28.579369 -26.916034 -0.000009 -0.000002 -12.562600 873.458251 -158.077844 152.297618 2.047994 -0.047200 -2.693200 140.908319 -7.673936 62.336910 0.000000 0.000006 -18.824406 5.762176 161.542498 -111.264997 0.000001 -0.000001 -19.078201 32.186365 -1.798413 42.979464 -2.129890 -0.022301 -2.538300 -511.767059 -6.448094 -129.515454 -0.000001 -0.000004 -18.644600 376.475601 171.271365 87.774433 0.000007 -0.000006 -18.801395 -30.456223 -6.473826 -55.866525
4.886292 -35.232510 26.379135 -366.947269 23.114146 -31.555887 -0.160405 1.630007 7.806304 -6.546063 10.376919 -19.145051 0.000006 0.000000 3.198001 2.563976 -9.053163 0.273228 0.000006 0.000005 7.440703 -50.669195 -1.891670 3.350236 -0.000005 0.000001 2.173907 -4.627833 -0.535885 -7.259858 2.426410 -1.880096 4.759397 -2.415093 5.417330 -4.476289 4.420205 0.000004 -0.000003 -110.413539 -16.373905 -92.389387 -0.000002 0.000001 -10.347095 333.674111 -33.484825 -6.612789 -0.000004 0.000002 -12.496301 148.777202 12.527566 62.374674 -2.781493 -1.903799 5.072601 20.888160 17.367552 -5.052006 -4.012096 -0.000000 0.000005 73.223453 -9.521229 61.516194 -0.000000 0.000002 -10.346592 -17.151433 -28.549830 -26.533108 0.000003 0.000000 -12.562602 873.222473 -158.130422 152.520556 2.047995 -0.047193 -2.693203 140.414442 -8.117547 61.870101 -0.000005 0.000006 -18.824398 6.830210 160.476415 -111.509129 0.000003 -0.000006 -19.078194 31.348253 -1.400753 41.678221 -2.129899 -0.022295 -2.538305 -511.733291 -6.544727 -129.513692 -0.000002 -0.000002 -18.644600 376.482923 171.396958 87.807826 -0.000005 -0.000000 -18.801397 -30.637910 -6.673014 -56.150541
4.828388 -35.256310 26.434341 -367.031799 23.087428 -31.742946 -0.160398 1.629999 7.806304 -6.405153 10.365915 -19.294154 0.000009 0.000001 3.198006 2.497804 -9.215944 0.278465 -0.000002 0.000001 7.440700 -50.690672 -2.077186 3.488932 -0.000005 -0.000001 2.173899 -4.598119 -0.602842 -7.291879 2.426395 -1.880100 4.759393 -2.448710 5.802629 -4.416486 4.420205 0.000011 0.000000 -110.628151 -16.112239 -93.208757 0.000008 0.000006 -10.347099 334.472861 -33.481147 -6.151845 0.000002 -0.000004 -12.496296 148.403864 12.618641 61.934762 -2.781501 -1.903803 5.072609 21.185674 17.643847 -5.491945 -4.012104 0.000003 -0.000004 73.006676 -9.023250 61.744282 -0.000002 0.000002 -10.346592 -16.664159 -28.597090 -26.121755 0.000001 0.000000 -12.562596 872.849108 -158.237055 152.786592 2.047994 -0.047203 -2.693202 139.991024 -8.420991 61.430544 -0.000008 0.000003 -18.824400 7.680380 159.618119 -111.726479 0.000008 -0.000003 -19.078197 30.731866 -1.066690 40.617274 -2.129897 -0.022299 -2.538301 -511.707445 -6.678883 -129.528595 0.000001 0.000000 -18.644600 376.461340 171.503728 87.866716 -0.000005 -0.000002 -18.801399 -30.848836 -6.917752 -56.543444
4.770187 -35.282013 26.492846 -367.130318 23.034770 -31.964654 -0.160398 1.629999 7.806303 -6.293911 10.391224 -19.372267 0.000011 0.000002 3.198001 2.429965 -9.390825 0.281689 0.000003 0.000004 7.440706 -50.730882 -2.238412 3.632439 -0.000008 -0.000000 2.173903 -4.544294 -0.659740 -7.378682 2.426409 -1.880099 4.759400 -2.904167 5.987884 -3.922161 4.420205 0.000006 -0.000003 -110.359007 -15.247626 -93.755247 -0.000005 0.000000 -10.347100 335.643829 -33.450278 -5.571632 -0.000004 -0.000005 -12.496292 148.013628 12.691251 61.492514 -2.781495 -1.903805 5.072607 21.618852 17.967975 -6.183672 -4.012102 0.000002 0.000003 72.626412 -8.472226 62.120550 0.000002 0.000005 -10.346593 -16.054194 -28.620543 -25.759375 -0.000001 0.000003 -12.562599 872.467164 -158.307379 152.966376 2.047996 -0.047198 -2.693203 139.465687 -8.815369 60.895494 -0.000000 0.000004 -18.824404 8.749356 158.614696 -112.001906 0.000003 -0.000003 -19.078199 29.570488 0.971408 33.289604 -2.129894 -0.022300 -2.538305 -511.699085 -6.868446 -129.534852 -0.000002 -0.000002 -18.644594 376.426041 171.611126 87.954525 -0.000009 -0.000002 -18.801399 -31.032630 -7.134563 -56.850502
